<?xml version="1.0" standalone="no"?>
<!DOCTYPE svg PUBLIC "-//W3C//DTD SVG 20010904//EN"
 "http://www.w3.org/TR/2001/REC-SVG-20010904/DTD/svg10.dtd">
<svg version="1.0" xmlns="http://www.w3.org/2000/svg"
 width="500.000000pt" height="500.000000pt" viewBox="0 0 500.000000 500.000000"
 preserveAspectRatio="xMidYMid meet">

<g transform="translate(0.000000,500.000000) scale(0.100000,-0.100000)"
fill="#7d0e31" stroke="none">
<path d="M2109 4427 c-14 -6 -62 -51 -107 -98 l-82 -86 0 -145 0 -146 69 -56
68 -56 416 0 416 0 71 60 70 61 0 141 0 141 -95 96 -94 96 -353 2 c-263 2
-360 -1 -379 -10z m759 -144 l74 -78 -6 -65 c-10 -99 -22 -131 -70 -185 l-44
-50 -349 0 -349 0 -39 44 c-54 59 -55 60 -71 163 l-15 91 78 79 78 78 319 0
320 0 74 -77z"/>
<path d="M2103 3780 c-26 -10 -38 -48 -29 -85 9 -35 47 -49 64 -24 12 18 32
19 337 19 312 0 325 -1 335 -20 9 -16 14 -18 35 -8 45 21 45 96 -1 117 -30 13
-707 15 -741 1z"/>
<path d="M2142 3631 c-9 -5 -12 -26 -10 -67 l3 -59 320 -3 c176 -1 330 0 343
3 20 5 22 11 22 64 0 44 -4 60 -16 65 -24 9 -647 7 -662 -3z"/>
<path d="M2068 3455 c-3 -3 -92 -9 -199 -14 -170 -7 -204 -11 -272 -35 -194
-66 -322 -205 -363 -395 -20 -97 -19 -582 1 -670 54 -227 254 -385 537 -423
49 -7 88 -15 88 -19 0 -10 -86 -211 -110 -256 -12 -24 -25 -43 -30 -43 -4 0
-40 15 -81 34 -207 95 -391 92 -529 -9 -166 -122 -152 -354 27 -437 60 -28 70
-30 156 -26 81 3 101 8 171 42 61 30 97 56 165 124 47 48 97 102 111 121 l25
34 100 -84 c55 -46 170 -151 255 -235 282 -275 362 -343 495 -422 261 -156
477 -176 705 -65 235 114 361 400 285 646 -50 163 -192 295 -365 337 l-65 17
35 18 c118 61 173 163 149 275 -17 78 -61 128 -154 175 -78 38 -82 39 -185 39
-165 0 -272 -44 -373 -154 -92 -99 -124 -237 -77 -330 33 -65 112 -91 161 -52
31 26 20 50 -19 44 -43 -6 -70 13 -82 58 -29 109 57 254 193 323 106 53 260
60 342 14 21 -12 54 -42 72 -65 29 -38 33 -51 33 -101 0 -113 -67 -187 -195
-217 -38 -9 -76 -18 -82 -20 -14 -4 -18 -63 -5 -65 4 -1 45 -3 91 -5 106 -4
172 -23 247 -72 141 -91 221 -276 193 -443 -28 -161 -137 -308 -279 -377 -73
-36 -78 -37 -190 -36 -105 0 -122 3 -196 32 -159 63 -307 168 -508 361 -232
224 -274 262 -357 329 -46 37 -105 81 -131 97 -26 17 -47 34 -48 39 0 6 98
214 163 345 10 21 24 27 84 37 309 52 683 300 870 577 39 57 85 142 104 188
31 78 33 92 34 199 0 129 -12 165 -77 229 -62 62 -101 76 -213 76 -97 -1 -102
-2 -189 -44 -189 -91 -339 -288 -495 -647 -37 -85 -177 -458 -186 -496 -4 -16
-14 -28 -24 -29 -58 -3 -126 5 -189 22 -190 51 -313 159 -362 317 -18 57 -20
93 -20 341 0 300 7 357 56 453 55 108 182 199 325 232 35 9 114 19 174 22 61
4 128 13 150 21 39 13 85 49 85 65 0 9 -24 11 -32 3z m799 -327 c57 -24 86
-53 110 -106 59 -127 -1 -334 -154 -534 -46 -60 -246 -248 -314 -295 -77 -53
-229 -133 -302 -159 -52 -19 -190 -54 -194 -50 -2 2 17 57 42 122 26 65 55
142 65 169 179 487 374 778 569 850 46 17 142 19 178 3z m-1357 -1516 c80 -28
170 -74 170 -88 0 -20 -95 -137 -158 -196 -136 -125 -292 -152 -395 -67 -44
37 -67 85 -67 144 0 104 73 189 190 222 59 17 189 9 260 -15z"/>
<path d="M2856 3437 c33 -46 78 -59 239 -73 221 -19 316 -53 412 -150 63 -63
107 -151 123 -245 6 -39 10 -318 10 -722 0 -437 3 -656 10 -652 11 7 40 68 61
130 11 32 14 158 14 650 0 564 -1 614 -18 670 -57 184 -169 299 -353 361 -69
23 -103 28 -264 35 -102 4 -200 11 -219 15 l-34 7 19 -26z"/>
<path d="M2975 2044 c-44 -22 -59 -39 -89 -93 -48 -89 -64 -180 -76 -428 -6
-125 -17 -264 -26 -308 -27 -140 -86 -239 -162 -272 -58 -24 -26 -52 45 -38
74 14 175 144 205 265 21 83 37 245 38 370 1 268 45 437 125 480 14 7 25 19
25 27 0 18 -48 17 -85 -3z"/>
</g>
</svg>